<?xml version="1.0" encoding="utf-8"?>
<!-- Generator: Adobe Illustrator 26.0.0, SVG Export Plug-In . SVG Version: 6.00 Build 0)  -->
<svg version="1.1" id="Layer_1" xmlns="http://www.w3.org/2000/svg" xmlns:xlink="http://www.w3.org/1999/xlink" x="0px" y="0px"
	 viewBox="0 0 274 77" style="enable-background:new 0 0 274 77;" xml:space="preserve">
<style type="text/css">
	.st0{fill:url(#SVGID_1_);}
	.st1{opacity:0.2;fill:url(#SVGID_00000041987594931338681930000002562903819275098240_);enable-background:new    ;}
	.st2{opacity:0.2;fill:url(#SVGID_00000087377775000436941640000008739613784139229616_);enable-background:new    ;}
	.st3{fill:#2D2A2A;}
	.st4{font-family:'ArialMT';}
	.st5{font-size:31px;}
</style>
<g id="BACKGROUND">
</g>
<g>
	
		<linearGradient id="SVGID_1_" gradientUnits="userSpaceOnUse" x1="54.1911" y1="66.211" x2="51.8341" y2="7.2856" gradientTransform="matrix(1 0 0 -1 0 78)">
		<stop  offset="0" style="stop-color:#FBB040"/>
		<stop  offset="1" style="stop-color:#F99441"/>
	</linearGradient>
	<path class="st0" d="M72.2,22.4c-0.2-0.1-0.5-0.1-0.7-0.2c0,0-4-0.9-7.5-0.2c0,0,2.5-1.6,7.4-1.3c-0.9-6.2-5.3-11.6-11.6-13.5
		c-6.4-1.8-13,0.4-17,5.2c4.3,2.2,5.6,4.9,5.6,4.9c-2.7-2.4-6.5-3.6-6.6-3.6l0,0c-0.2-0.1-0.5-0.2-0.7-0.2
		c-5.8-1.7-11.8,1.7-13.5,7.4c-1.7,5.8,1.7,11.8,7.4,13.5c0.9,0.3,1.8,0.4,2.6,0.4l-6.8,23.4c3.1,2.7,12.3,9.3,25.9,7.8l6.9-23.7
		c0.8,0.4,1.6,0.8,2.4,1.1c5.8,1.7,11.8-1.7,13.5-7.4S78,24.1,72.2,22.4z M58.6,28.5c0-0.1,0.2-0.2,0.3-0.2l0,0
		c0.1,0,0.2,0.2,0.2,0.3c0,0.1-0.2,0.2-0.3,0.2l0,0C58.6,28.8,58.5,28.7,58.6,28.5z M49.2,25.8c0-0.1,0.2-0.2,0.3-0.2l8.7,2.5
		c0.1,0,0.2,0.2,0.2,0.3c0,0.1-0.2,0.2-0.3,0.2l-8.7-2.5C49.2,26.1,49.1,25.9,49.2,25.8z M45.7,61.6c-0.3,0.9-1.2,1.4-2.1,1.1
		c-0.9-0.3-1.4-1.2-1.1-2.1c0.3-0.9,1.2-1.4,2.1-1.1C45.5,59.8,46,60.7,45.7,61.6z M54.6,61l-19.2-5.6L43.9,26l19.3,5.6L54.6,61z"/>
	
		<linearGradient id="SVGID_00000009557130107660662880000005936270685881580932_" gradientUnits="userSpaceOnUse" x1="55.1549" y1="66.1724" x2="52.7979" y2="7.2469" gradientTransform="matrix(1 0 0 -1 0 78)">
		<stop  offset="0" style="stop-color:#FBB040"/>
		<stop  offset="1" style="stop-color:#F99441"/>
	</linearGradient>
	<path style="opacity:0.2;fill:url(#SVGID_00000009557130107660662880000005936270685881580932_);enable-background:new    ;" d="
		M35,34.3c0.9,0.3,1.8,0.4,2.6,0.4l-6.8,23.4c3.1,2.7,12.3,9.3,25.9,7.8l6.9-23.7c0.8,0.4,1.6,0.8,2.4,1.1
		c5.8,1.7,11.8-1.7,13.5-7.4c0-0.1,0-0.2,0.1-0.3c-2.6,0.8-5.3,1.3-8.1,1.5c-3.3,0.2-6.6-0.1-9.9-0.6l-7.1,24.6l-19.1-5.7l7.2-25
		c-0.9-0.3-1.9-0.6-2.8-0.8c-2.5-0.5-5.1-0.5-7.7-0.2c-0.9,0.1-1.9,0.3-3,0.5C30.4,32,32.5,33.6,35,34.3z M42.5,60.7
		c0.3-0.9,1.2-1.4,2.1-1.1c0.9,0.3,1.4,1.2,1.1,2.1c-0.3,0.9-1.2,1.4-2.1,1.1C42.8,62.5,42.3,61.6,42.5,60.7z"/>
	
		<linearGradient id="SVGID_00000008851002271238136940000006212713262752556170_" gradientUnits="userSpaceOnUse" x1="56.7623" y1="66.1081" x2="54.4053" y2="7.1828" gradientTransform="matrix(1 0 0 -1 0 78)">
		<stop  offset="0" style="stop-color:#FBB040"/>
		<stop  offset="1" style="stop-color:#F99441"/>
	</linearGradient>
	<path style="opacity:0.2;fill:url(#SVGID_00000008851002271238136940000006212713262752556170_);enable-background:new    ;" d="
		M56.8,66l6.9-23.7c0.8,0.4,1.6,0.8,2.4,1.1c5.8,1.7,11.8-1.7,13.5-7.4c0.1-0.2,0.1-0.5,0.2-0.7C75.1,32,68.7,30.7,63,31.7h0.1
		l-8.5,29.4l-19.2-5.7L39.3,42c-1.3,0.2-2.5,0.4-3.8,0.5L31,58.2C34,60.9,43.2,67.5,56.8,66z M42.5,60.7c0.3-0.9,1.2-1.4,2.1-1.1
		c0.9,0.3,1.4,1.2,1.1,2.1c-0.3,0.9-1.2,1.4-2.1,1.1C42.8,62.5,42.3,61.6,42.5,60.7z"/>
</g>
<g>
	<g>
		<text transform="matrix(1 0 0 1 78.0039 60.3387)" class="st3 st4 st5">Recipe finder</text>
	</g>
</g>
</svg>
