<?xml version="1.0" encoding="utf-8"?>
<!-- Generator: Adobe Illustrator 26.0.0, SVG Export Plug-In . SVG Version: 6.00 Build 0)  -->
<svg version="1.1" xmlns="http://www.w3.org/2000/svg" xmlns:xlink="http://www.w3.org/1999/xlink" x="0px" y="0px"
	 viewBox="0 0 222 222" style="enable-background:new 0 0 222 222;" xml:space="preserve">
<style type="text/css">
	.st0{fill:url(#SVGID_1_);}
	.st1{opacity:0.2;fill:url(#SVGID_00000078012552505170133680000013377314742774388118_);}
	.st2{opacity:0.2;fill:url(#SVGID_00000116237146291421542820000005160027010829631631_);}
</style>
<g id="BACKGROUND">
</g>
<g id="OBJECTS">
	<g>
		<linearGradient id="SVGID_1_" gradientUnits="userSpaceOnUse" x1="118.9183" y1="36.5004" x2="113.2071" y2="179.2819">
			<stop  offset="0" style="stop-color:#FBB040"/>
			<stop  offset="1" style="stop-color:#F99441"/>
		</linearGradient>
		<path class="st0" d="M162.3,62.3c-0.6-0.2-1.2-0.3-1.7-0.4c0,0-9.7-2.3-18.3-0.6c0,0,6.2-3.8,17.9-3.2
			c-2.1-15-12.6-28.1-28.1-32.6C116.7,21.1,100.8,26.5,91,38c10.3,5.4,13.7,11.8,13.7,11.8c-6.5-5.7-15.8-8.7-16-8.8c0,0,0,0,0,0
			c-0.6-0.2-1.1-0.4-1.7-0.6c-14-4.1-28.7,4-32.8,18c-4.1,14,4,28.7,18,32.8c2.1,0.6,4.2,0.9,6.4,1L62.2,149
			c7.6,6.5,29.9,22.5,62.9,19l16.7-57.5c1.8,1.1,3.8,1.9,5.9,2.6c14,4.1,28.7-4,32.8-18S176.4,66.4,162.3,62.3z M129.3,77.2
			c0.1-0.3,0.4-0.5,0.7-0.4l0.1,0c0.3,0.1,0.5,0.4,0.4,0.7c-0.1,0.3-0.4,0.5-0.7,0.4l-0.1,0C129.4,77.8,129.2,77.5,129.3,77.2z
			 M106.5,70.6c0.1-0.3,0.4-0.5,0.7-0.4l21,6.1c0.3,0.1,0.5,0.4,0.4,0.7c-0.1,0.3-0.4,0.5-0.7,0.4l-21-6.1
			C106.6,71.2,106.4,70.9,106.5,70.6z M98.2,157.3c-0.6,2.1-2.9,3.4-5,2.7c-2.1-0.6-3.4-2.9-2.7-5c0.6-2.1,2.9-3.4,5-2.7
			C97.5,152.9,98.8,155.1,98.2,157.3z M119.7,155.7L73,142.2L93.7,71l46.7,13.5L119.7,155.7z"/>
		
			<linearGradient id="SVGID_00000145750480714872942070000014044008338749306240_" gradientUnits="userSpaceOnUse" x1="121.2082" y1="36.5919" x2="115.497" y2="179.3738">
			<stop  offset="0" style="stop-color:#FBB040"/>
			<stop  offset="1" style="stop-color:#F99441"/>
		</linearGradient>
		<path style="opacity:0.2;fill:url(#SVGID_00000145750480714872942070000014044008338749306240_);" d="M72.3,91.2
			c2.1,0.6,4.2,0.9,6.4,1L62.2,149c7.6,6.5,29.9,22.5,62.9,19l16.7-57.5c1.8,1.1,3.8,1.9,5.9,2.6c14,4.1,28.7-4,32.8-18
			c0.1-0.3,0.1-0.5,0.2-0.8c-6.4,1.9-12.9,3.1-19.6,3.5c-8.1,0.5-16.1-0.2-24-1.6l-17.3,59.5L73,142.2l17.5-60.4
			c-2.3-0.8-4.5-1.4-6.9-1.9c-6.1-1.2-12.4-1.1-18.6-0.4c-2.1,0.2-4.6,0.7-7.3,1.2C61.1,85.6,66.1,89.4,72.3,91.2z M90.4,155
			c0.6-2.1,2.9-3.4,5-2.7c2.1,0.6,3.4,2.9,2.7,5c-0.6,2.1-2.9,3.4-5,2.7C91,159.4,89.8,157.2,90.4,155z"/>
		
			<linearGradient id="SVGID_00000174566333472733546440000000477987808377988771_" gradientUnits="userSpaceOnUse" x1="124.8428" y1="36.7373" x2="119.1316" y2="179.5186">
			<stop  offset="0" style="stop-color:#FBB040"/>
			<stop  offset="1" style="stop-color:#F99441"/>
		</linearGradient>
		<path style="opacity:0.2;fill:url(#SVGID_00000174566333472733546440000000477987808377988771_);" d="M125,168l16.7-57.5
			c1.8,1.1,3.8,1.9,5.9,2.6c14,4.1,28.7-4,32.8-18c0.2-0.6,0.3-1.2,0.4-1.7c-11.4-8.1-26.9-11.1-40.6-8.8l0.2,0.1l-20.6,71.2
			L73,142.2l9.4-32.4c-3.1,0.6-6.1,1-9.2,1.2l-11,38C69.8,155.6,92,171.5,125,168z M90.4,155c0.6-2.1,2.9-3.4,5-2.7
			c2.1,0.6,3.4,2.9,2.7,5c-0.6,2.1-2.9,3.4-5,2.7C91,159.4,89.8,157.2,90.4,155z"/>
	</g>
</g>
</svg>
